<svg height="512" viewBox="0 0 60 48" width="512" xmlns="http://www.w3.org/2000/svg"><g id="032---Play-Stream" fill="none"><g id="Layer_4" transform="translate(13 1)"><path id="Shape" d="m46 23c0 12.7025492-10.2974508 23-23 23-.51 0-1.01-.02-1.5-.05-12.08781247-.798349-21.48424936-10.8358524-21.48424936-22.95s9.39643689-22.151651 21.48424936-22.95c.49-.03.99-.05 1.5-.05 12.7025492 0 23 10.2974508 23 23z" fill="#cad9fc"/><ellipse id="Oval" cx="21.5" cy="23" fill="#e8edfc" rx="21.5" ry="22.95"/><path id="Shape" d="m36.55 23.83-20.02 13.01c-.3045213.1973754-.6925696.2125207-1.011548.0394801-.3189785-.1730406-.5178661-.506589-.518452-.8694801v-26.02c.0005859-.36289108.1994735-.69643951.518452-.8694801.3189784-.17304058.7070267-.1578953 1.011548.0394801l18.45 11.99 1.57 1.02c.2809025.1826305.4503705.4949476.4503705.83s-.169468.6473695-.4503705.83z" fill="#e8edfc"/><path id="Shape" d="m34.98 21.15c-.0323749.2802957-.1906475.5305872-.43.68l-19.55 12.7v-24.54c.0005859-.36289108.1994735-.69643951.518452-.8694801.3189784-.17304058.7070267-.1578953 1.011548.0394801z" fill="#f5f5f5"/></g><path id="Shape" d="m25.479 46.948c-12.0878125-.798349-21.48424936-10.8358524-21.48424936-22.95s9.39643686-22.151651 21.48424936-22.95c-8.5608182-.56540591-16.72471218 3.68098909-21.17673416 11.0149371-4.45202197 7.333948-4.45202197 16.5361778 0 23.8701258 4.45202198 7.333948 12.61591596 11.580343 21.17673416 11.0149371z" fill="#fff" transform="translate(12)"/><path id="Shape" d="m27.624 44.338-.764 1.849c-2.5781745-1.0648506-4.9515311-2.5699391-7.014-4.448l1.348-1.478c1.8905113 1.7218281 4.0663226 3.1014211 6.43 4.077z" fill="#fff"/><g fill="#428dff"><path id="Shape" d="m23.708 44.427c-.5522847 0-1-.4477153-1-1s.4477153-1 1-1 1 .4477153 1 1-.4477153 1-1 1z"/><path id="Shape" d="m36 0c-5.9777144-.00416037-11.74048 2.22938396-16.154 6.261-.2640193.24079701-.3795195.60415522-.3029928.95320113.0765267.3490459.3334541.63075112.674.73900001.340546.10824889.7129735.02659588.9769928-.21420114 8.0617658-7.34584979 20.2885548-7.67623688 28.7352595-.77647195 8.4467047 6.89976495 10.5631157 18.94652095 4.9739648 28.31214795s-17.1964002 13.2224767-27.2792243 9.064324c-.5034433-.1948021-1.0717269.0338228-1.3.523-.1142924.2455787-.1217297.5275352-.0205425.7787977.1011871.2512624.3019541.449372.5545425.5472023 8.9705491 3.6986602 19.2856893 1.6318551 26.1387995-5.2373311s8.8957408-17.1891407 5.1760724-26.1509991c-3.7196684-8.96185835-12.4697367-14.80224396-22.1728719-14.7996698z"/><path id="Shape" d="m30.08 38.676 20.02-13.009c.5643341-.3666882.904831-.9939969.904831-1.667s-.3404969-1.3003118-.904831-1.667l-20.021-13.01c-.6124405-.39720101-1.3929705-.42800238-2.0348065-.08029777-.641836.34770462-1.0423775 1.01833287-1.0441935 1.74829777v26.018c.0019447.7301156.4027679 1.4007868 1.0448713 1.7483148.6421034.3475281 1.4227993.3163349 2.0351287-.0813148zm-1.08-27.669 20.005 12.983-20.005 13.019z"/><path id="Shape" d="m1 30h11.794c.5081486 2.1092268 1.3267459 4.1312869 2.429 6h-6.223c-.55228475 0-1 .4477153-1 1s.44771525 1 1 1h12c.5522847 0 1-.4477153 1-1s-.4477153-1-1-1h-3.414c-1.2366611-1.8338652-2.157401-3.8619266-2.724-6h3.138c.5522847 0 1-.4477153 1-1s-.4477153-1-1-1h-3.615c-1.0507303-5.5465177.0968191-11.2842646 3.2-16h3.415c.5522847 0 1-.4477153 1-1s-.4477153-1-1-1h-12c-.55228475 0-1 .4477153-1 1s.44771525 1 1 1h6.223c-2.7967074 4.8341948-3.8134745 10.4946935-2.874 16h-11.349c-.55228475 0-1 .4477153-1 1s.44771525 1 1 1z"/><path id="Shape" d="m1 20h8c.55228475 0 1-.4477153 1-1s-.44771525-1-1-1h-8c-.55228475 0-1 .4477153-1 1s.44771525 1 1 1z"/></g></g></svg>