<svg height="512" viewBox="0 0 60 48" width="512" xmlns="http://www.w3.org/2000/svg"><g id="032---Play-Stream"><path id="Shape" d="m36 0c-5.9777144-.00416037-11.74048 2.22938396-16.154 6.261-.2640193.24079701-.3795195.60415522-.3029928.95320113.0765267.3490459.3334541.63075112.674.73900001.340546.10824889.7129735.02659588.9769928-.21420114 8.7849351-8.00548375 22.3399602-7.58614656 30.613256.94704927 8.2732959 8.53319583 8.2732959 22.09470563 0 30.62790143-8.2732958 8.5331959-21.8283209 8.952533-30.613256.9470493-.4081384-.3722399-1.0407601-.3431384-1.413.065-.3722399.4081385-.3431384 1.0407601.065 1.413 7.9280374 7.2248574 19.6875759 8.3118758 28.8056514 2.6627129 9.1180754-5.6491629 13.3806015-16.6627557 10.4412976-26.9784153-2.9393039-10.31565969-12.3667048-17.42849793-23.092949-17.4232976z"/><path id="Shape" d="m28.993 39c.856 0-.583.772 21.1-13.332.5643341-.3666882.904831-.9939969.904831-1.667s-.3404969-1.3003118-.904831-1.667l-20.014-13.011c-.6124405-.39720101-1.3929705-.42800238-2.0348065-.08029777-.641836.34770462-1.0423775 1.01833287-1.0441935 1.74829777v26.018c.0011038 1.0999224.8930771 1.9910006 1.993 1.991zm.007-27.993 20.005 12.983-20.005 13.019z"/><path id="Shape" d="m1 30h11.794c.5081486 2.1092268 1.3267459 4.1312869 2.429 6h-6.223c-.55228475 0-1 .4477153-1 1s.44771525 1 1 1h12c.5522847 0 1-.4477153 1-1s-.4477153-1-1-1h-3.414c-1.2366611-1.8338652-2.157401-3.8619266-2.724-6h3.138c.5522847 0 1-.4477153 1-1s-.4477153-1-1-1h-3.615c-1.0507303-5.5465177.0968191-11.2842646 3.2-16h3.415c.5522847 0 1-.4477153 1-1s-.4477153-1-1-1h-12c-.55228475 0-1 .4477153-1 1s.44771525 1 1 1h6.223c-2.7967074 4.8341948-3.8134745 10.4946935-2.874 16h-11.349c-.55228475 0-1 .4477153-1 1s.44771525 1 1 1z"/><path id="Shape" d="m1 20h8c.55228475 0 1-.4477153 1-1s-.44771525-1-1-1h-8c-.55228475 0-1 .4477153-1 1s.44771525 1 1 1z"/></g></svg>